<svg width="48" height="48" version="1.1" xmlns="http://www.w3.org/2000/svg" xmlns:xlink="http://www.w3.org/1999/xlink">
 <defs>
  <style id="a" type="text/css">.ColorScheme-Text { color:#ebdbb2; } .ColorScheme-Highlight { color:#458588; }</style>
  <linearGradient id="b" y2="1">
   <stop stop-color="#01ff01" offset="0"/>
   <stop stop-color="#1b8b00" offset="1"/>
  </linearGradient>
 </defs>
 <path class="ColorScheme-Text" d="m24.001 2.8625c-12.463 0-22.565 9.462-22.568 21.134 0.00328 3.6048 0.99329 7.1493 2.8718 10.295l-1.5745 6.4458-0.22998 0.87283c-0.45076 1.7218 1.1702 3.8615 3.0074 3.4841l8.4385-2.1877c3.1218 1.4591 6.5636 2.2203 10.054 2.223 12.463 0 22.568-9.462 22.568-21.134s-10.105-21.134-22.568-21.134zm0 3.0191c10.739 3.953e-4 19.455 8.0611 19.507 18.033l-19.099 8.2543 16.557 0.76656c-3.466 5.6699-9.945 9.1751-16.965 9.1751-10.775 0-19.507-8.1094-19.507-18.115 0.00162-0.39822 0.017016-0.79403 0.047154-1.191l20.367-8.8098-16.587-0.7726c3.6773-4.6163 9.4952-7.3395 15.678-7.3425z" fill="url(#b)" stroke-width="3.0191"/>
</svg>
