<svg width="48pt" height="48pt" style="isolation:isolate" version="1.1" viewBox="0 0 48 48" xmlns="http://www.w3.org/2000/svg">
 <defs>
  <linearGradient id="a" x1="1" x2="0" y1="1">
   <stop stop-color="#D800BD" offset="0"/>
   <stop stop-color="#F92D7A" offset=".4081"/>
   <stop stop-color="#FF4A52" offset=".59007"/>
   <stop stop-color="#FFB243" offset="1"/>
  </linearGradient>
 </defs>
 <path d="m41.575 4.125c-0.65 0.01-1.2796 0.19957-1.8296 0.55957-0.92889 0.60662-1.697 1.8303-5.9707 5.4404-0.81 0.67-1.6493 1.2996-2.5093 1.8896-0.83 0.57-1.6913 1.0703-2.5913 1.5103l-0.24463 0.12012c-0.62-0.178-1.2668-0.26953-1.9248-0.26953-1.85 0-3.6397 0.73932-4.9497 2.0493-0.289 0.289-0.54965 0.60136-0.76465 0.94336-0.214-0.342-0.47711-0.65436-0.76611-0.94336-0.568-0.569-1.224-1.0296-1.938-1.3696l-4.1016-5.4697c-0.19-0.26-0.41969-0.5002-0.67969-0.7002-0.36-0.3-0.82027-0.46021-1.2803-0.47021-0.75 0.01-1.4297 0.47016-1.7197 1.1602-0.18 0.42-0.26049 0.86982-0.25049 1.3198l-0.05274 5.6616c-0.466 0.492-0.85855 1.045-1.1646 1.645-0.437-0.219-0.88905-0.40139-1.3521-0.54639-0.65-0.2-1.3207-0.3108-1.9907-0.3208-1.11-0.02-2.1903 0.32998-3.0703 0.97998-0.69 0.53-1.2198 1.2305-1.5498 2.0405-0.31 0.78-0.45971 1.6197-0.44971 2.4697 0.01 1.11 0.21963 2.2102 0.61963 3.2402 0.43 1.14 1.031 2.2204 1.771 3.1904 0.93 1.24 2.0995 2.2894 3.4395 3.0894 0.199 0.117 0.40091 0.22666 0.60791 0.32666 3.427 2.108 7.1119 3.7623 10.963 4.9233 1.8 0.55 3.639 0.97002 5.499 1.27 1.73 0.28 3.4707 0.42066 5.2207 0.43066 1.57 0.01 3.1402-0.14092 4.6802-0.44092 0.796-0.148 2.4593-0.59147 2.6953-0.58447 0.51132 0.01722 2.1387 0.49619 4.7124 1.2949-0.262 1.157 0.34097 2.5838 1.897 3.1538 2.614 0.957 5.0449 2.1562 5.0449 2.1562-1.247-4.052-1.6892-7.2684-4.9482-6.9814-0.125 0.011-0.24535 0.0292-0.36035 0.0542l-3.6768-1.8838c1.004-1.042 1.8797-2.2098 2.5957-3.4688 1.01-1.8 1.7888-3.7305 2.3188-5.7305 0.61-2.28 1.031-4.5992 1.251-6.9492 0.27-2.71 0.3994-5.4409 0.3794-8.1709 0-1.2501-0.01458-2.4999-0.05713-3.75-0.011264-0.33117-0.1597-0.8319-0.36181-1.0942-0.36639-0.47566-0.80786-0.88539-1.311-1.2158-0.54-0.36-1.1796-0.54957-1.8296-0.55957zm0 3.0088c0.02658 0 0.05343 0.00281 0.07324 0.00879 0.03568 0.010767 0.07125 0.024643 0.10693 0.04248 0.05833 0.038892 0.1137 0.079431 0.16846 0.12305 0.09718 0.0774 0.17416 0.24785 0.17725 0.37207 0.02544 1.025 0.03369 2.0497 0.03369 3.0747 0.02 2.63-0.10035 5.2606-0.36035 7.8706-0.21 2.19-0.59894 4.3502-1.1689 6.4702-0.46 1.75-1.1505 3.4388-2.0405 5.0288-0.757 1.34-1.7324 2.5484-2.8784 3.5684-2.065-1.145-4.314-2.1611-5.644-2.7231 0.331-0.415 0.61752-0.59118 0.06152-1.3052-0.864-1.111-2.5283-1.79-2.5283-1.79s0.15452 0.78068 0.70752 1.4927c-1.308 1.005-3.8964 1.3253-6.8394 1.5073-1.772 0.107-3.7252 0-5.8682 0v0.0015c3.34 1.173 6.2055 2.0486 8.4565 1.9966 1.724-0.04 3.0871-0.64659 4.0151-1.5586 0.921 0.776 2.7409 2.2514 4.7739 3.5654-0.055 0.013-0.11099 0.02416-0.16699 0.03516-1.35 0.26-2.7186 0.39086-4.0986 0.38086-1.59-0.01-3.1805-0.14111-4.7505-0.39111-1.73-0.28-3.4408-0.6692-5.1108-1.1792-1.899-0.57-3.7568-1.2714-5.5518-2.1094 0.035-0.022 0.06954-0.04631 0.10254-0.07031 0.69-0.53 1.2196-1.2303 1.5396-2.0303 0.279-0.688 0.4291-1.4135 0.4541-2.1445 1.801-0.039 3.5146-0.77392 4.7856-2.0449 0.289-0.289 0.55211-0.60136 0.76611-0.94336 0.215 0.342 0.47565 0.65436 0.76465 0.94336 1.31 1.31 3.0997 2.0493 4.9497 2.0493 1.86 0 3.6397-0.73932 4.9497-2.0493s2.0508-3.0912 2.0508-4.9512c0-1.858-0.73839-3.6353-2.0464-4.9453 0.515-0.286 1.0116-0.59957 1.4956-0.93457 0.95-0.64 1.861-1.3298 2.751-2.0698 2.7858-2.3521 5.0698-4.6494 5.0698-4.6494s0.37963-0.43033 0.61963-0.59033c0.03568-0.017838 0.07126-0.031713 0.10693-0.04248 0.01982-0.00598 0.04666-0.00879 0.07324-0.00879zm-28.54 5.1914 1.0532 1.1191c-0.363 0.051-0.71987 0.13177-1.0679 0.23877zm2.0391 4.0503c1.06 0 2.0801 0.41895 2.8301 1.1689s1.1704 1.7701 1.1704 2.8301c0 0.025 5.35e-4 0.05117-0.0015 0.07617-0.129-0.232-0.291-0.43505-0.479-0.60205-0.238-0.212-0.5132-0.36768-0.8042-0.47168 0.441 1.795-2.2495 2.7838-3.1245 1.1338-0.178 0.346-0.28125 0.75689-0.28125 1.2129 0 0.796 0.31402 1.4481 0.79102 1.8721 0.335 0.298 0.74055 0.48629 1.1646 0.57129-0.403 0.138-0.83162 0.20801-1.2656 0.20801-0.086 0-0.17228-0.0023-0.25928-0.0073-0.062-0.193-0.12768-0.38375-0.20068-0.57275-0.43-1.14-1.0193-2.2202-1.7593-3.1802-0.452-0.602-0.95718-1.1568-1.5132-1.6538 0.237-0.657 0.65364-1.236 1.2026-1.686 0.71-0.58 1.6098-0.89941 2.5298-0.89941zm11.43 0c1.06 0 2.0801 0.41895 2.8301 1.1689s1.1704 1.7701 1.1704 2.8301c0 0.64-0.15299 1.2652-0.43799 1.8252 4e-3 -0.089 0.0073-0.17807 0.0073-0.26807 0-0.796-0.31302-1.4495-0.79102-1.8735-0.238-0.212-0.51173-0.36768-0.80273-0.47168 0.441 1.795-2.2495 2.7838-3.1245 1.1338-0.177 0.346-0.28125 0.75443-0.28125 1.2114 0 0.796 0.31402 1.4495 0.79102 1.8735 0.315 0.28 0.69131 0.46339 1.0913 0.54639-0.149 0.015-0.30064 0.02344-0.45264 0.02344-1.06 0-2.0801-0.42041-2.8301-1.1704s-1.1704-1.7701-1.1704-2.8301 0.42041-2.0801 1.1704-2.8301 1.7701-1.1689 2.8301-1.1689zm-21.06 2.959c0.39 0.01 0.76965 0.07018 1.1396 0.18018 0.45 0.14 0.89053 0.34008 1.2905 0.58008 1.01 0.6 1.8898 1.3906 2.5898 2.3306 0.57 0.74 1.0206 1.5602 1.3506 2.4302 0.27 0.71 0.4192 1.4695 0.4292 2.2295 0.01 0.45-0.08023 0.88957-0.24023 1.3096-0.12 0.3-0.31982 0.55-0.56982 0.75-0.35 0.26-0.78022 0.39086-1.2202 0.38086-0.38 0-0.75939-0.06018-1.1294-0.18018-0.218-0.068-0.43439-0.14852-0.65039-0.22852-0.219-0.108-0.43793-0.21831-0.64893-0.34131-1-0.61-1.8811-1.4008-2.5811-2.3408-0.57-0.73-1.0191-1.5499-1.3491-2.4199-0.28-0.72-0.42066-1.4697-0.43066-2.2397-0.01-0.44 0.070234-0.88957 0.24023-1.3096 0.12-0.29 0.30957-0.55 0.55957-0.75 0.36-0.25 0.79021-0.39086 1.2202-0.38086z" fill="url(#a)" fill-rule="evenodd"/>
</svg>
