<svg width="48" height="48" enable-background="new" version="1.1" viewBox="0 0 48 48" xmlns="http://www.w3.org/2000/svg" xmlns:xlink="http://www.w3.org/1999/xlink">
 <defs>
  <style type="text/css">.ColorScheme-Text { color:#d5c289; } .ColorScheme-Highlight { color:#5294e2; }</style>
  <linearGradient id="c" x1="-11.462" x2="-11.214" y1="-5.8381" y2="-26.838" gradientTransform="translate(19.838 19.838)" gradientUnits="userSpaceOnUse" xlink:href="#a"/>
  <linearGradient id="a">
   <stop stop-color="#8b00fc" offset="0"/>
   <stop stop-color="#ff33db" offset=".5"/>
  </linearGradient>
  <linearGradient id="b" x1="8.1098" x2="7.8185" y1="11.526" y2="-3.2967" gradientTransform="translate(.18151 -.70334)" gradientUnits="userSpaceOnUse" xlink:href="#a"/>
 </defs>
 <g transform="matrix(2.8531 0 0 2.8531 1.1747 1.1751)">
  <path d="m7.9188 9.7962e-5c-0.5881 4.9735e-4 -1.171 0.21948-1.6017 0.66577v0.001994l-5.5121 5.7322c-0.56795 0.57668-0.88034 1.0885-0.78911 1.6439 0.045612 0.2777 0.2059 0.51023 0.3887 0.67163 0.18279 0.1614 0.39126 0.27032 0.60941 0.36314 0.43633 0.18566 0.92909 0.30471 1.3849 0.43148 0.20389 0.056717 0.31265 0.12235 0.48636 0.18352-0.23689 0.11672-0.48941 0.23175-0.71489 0.41781-0.1137 0.0938-0.24264 0.21053-0.30666 0.43538-0.063631 0.22348 0.037429 0.52081 0.1836 0.67163 0.23838 0.24779 0.51155 0.35559 0.836 0.48614 0.32533 0.13091 0.69512 0.25297 1.0587 0.37292 0.36355 0.11991 0.72135 0.23812 1.0021 0.34948 0.20408 0.08083 0.28281 0.13567 0.3594 0.18157-0.03909 0.04844-0.053799 0.07124-0.1211 0.14253-0.12219 0.12917-0.27609 0.27043-0.39261 0.51347-0.058256 0.12153-0.10631 0.28399-0.08595 0.46466 0.020186 0.1792 0.11285 0.35041 0.23049 0.47442 0.42361 0.45307 0.9556 0.42104 1.2462 0.49006 0.14548 0.03447 0.23202 0.07422 0.28322 0.11915 0.051202 0.04502 0.10132 0.10318 0.13673 0.30457 0.069636 0.3985 0.40982 0.69626 0.73833 0.80048 0.32851 0.10426 0.67077 0.09711 1.0216 0.04492 0.70156-0.10465 1.4407-0.3999 1.9728-0.84735l2e-3 -0.0025 0.0038-0.0025c0.10944-0.09426 0.21759-0.21089 0.26953-0.40194 0.05191-0.19104-0.01398-0.42507-0.10549-0.5486-0.10857-0.14643-0.18578-0.15661-0.27542-0.20295 0.38112-0.28972 0.73658-0.49109 1.1173-0.59353 0.24122-0.06486 0.5071-0.13321 0.77153-0.30261 0.26335-0.16871 0.49558-0.448 0.63676-0.81025v-0.0022c0.07751-0.19835 0.05847-0.44096-0.01759-0.60895-0.07626-0.16832-0.18385-0.28014-0.29105-0.37464-0.21441-0.18896-0.45231-0.31724-0.66216-0.43534-0.0021-9.97e-4 -0.0023-9.15e-4 -0.0044-0.0021 0.26666-0.12491 0.49276-0.2458 0.88096-0.38244 0.59581-0.20956 1.2639-0.42938 1.8518-0.7086 0.58801-0.27919 1.137-0.60393 1.387-1.1929 0.12514-0.29459 0.13781-0.65148 0.02555-0.98217-0.11176-0.32892-0.32655-0.63669-0.6368-0.95256l-0.0047-0.00399-5.7211-5.9451-0.00777-0.007778c-0.4525-0.43421-1.0457-0.65237-1.6339-0.65187zm0.0077661 1.0074c0.33586 4.975e-4 0.67944 0.12167 0.93562 0.36705l5.7055 5.9294 0.0025 0.00203c0.24307 0.24682 0.36181 0.4469 0.40628 0.5779 0.04441 0.13101 0.03684 0.18724 0.0025 0.26943-0.06975 0.16437-0.39313 0.44224-0.8966 0.68138-0.50388 0.23912-1.1467 0.45377-1.7544 0.6677-0.60789 0.21392-1.1722 0.40938-1.6018 0.71652l-0.0021 2e-3c-0.14662 0.10522-0.31576 0.33409-0.29892 0.58763 0.01684 0.25355 0.14994 0.39192 0.25002 0.48615 0.20014 0.18847 0.4103 0.28965 0.61723 0.4061 0.19133 0.1077 0.35758 0.21395 0.45315 0.29091-0.05232 0.09033-0.10023 0.18507-0.16798 0.22844-0.09845 0.0631-0.25974 0.11706-0.49223 0.17962-0.46496 0.1251-1.187 0.31468-1.8731 1.0191l-0.00204 0.0025h-0.00203c-0.10385 0.10832-0.20201 0.2472-0.23049 0.43929-0.028473 0.19209 0.049035 0.39632 0.13868 0.51153 0.074038 0.0952 0.12554 0.09391 0.19337 0.14057-0.34123 0.19358-0.72151 0.40664-1.0978 0.46272-0.25347 0.03765-0.47162 0.02153-0.57035-0.0085-0.09873-0.03123-0.052623 0.0043-0.056644-0.01958-0.065136-0.37153-0.23026-0.68158-0.46109-0.88432-0.23083-0.20274-0.49353-0.28954-0.71294-0.34167-0.35617-0.08463-0.5035-0.12166-0.60551-0.16205 0.037823-0.04567 0.045957-0.06005 0.10353-0.12102 0.12218-0.12924 0.27804-0.27244 0.39455-0.51548 0.058258-0.12153 0.10434-0.28204 0.083985-0.46272-0.020352-0.18069-0.1134-0.35608-0.23243-0.4803l-0.00208-0.0023-0.00404-0.0023c-0.23963-0.24278-0.51134-0.34884-0.83576-0.47757-0.32442-0.1287-0.69383-0.24929-1.0567-0.369-0.36288-0.11971-0.71837-0.23887-0.99812-0.35142-0.078668-0.03167-0.074272-0.0382-0.13868-0.07029 0.081735-0.04458 0.11819-0.07429 0.2129-0.12106 0.23338-0.11513 0.47372-0.21836 0.69341-0.38853 0.10985-0.08507 0.25499-0.18585 0.30861-0.45295 0.026812-0.13354-0.0013-0.30375-0.068364-0.42172-0.067075-0.11797-0.15251-0.18925-0.23244-0.2421l-0.00395-4e-3c-0.40646-0.26176-0.88887-0.39702-1.3633-0.529-0.47447-0.13198-0.94323-0.25297-1.2618-0.38852-0.15928-0.067776-0.27764-0.14007-0.33791-0.19329-0.060274-0.053222-0.059783-0.06741-0.062503-0.083953-0.0054153-0.033083 0.035243-0.29516 0.51175-0.77901l0.00209-4e-3 5.5199-5.738c0.22534-0.23347 0.55282-0.35382 0.88867-0.35332z" fill="url(#c)"/>
  <g fill="#ff33db">
   <path d="m3.3496 12.539c-0.63768 0.03831-1.3212 0.50949-0.78125 0.97266 0.501 0.43994 1.2602-0.09623 1.5039-0.71484-0.15233-0.20192-0.4328-0.27523-0.72266-0.25781z"/>
   <path d="m12.799 12.717c-0.62287 0.57741 0.10742 1.1819 0.7168 0.7832 0.1625-0.10994-0.01276-0.64571-0.7168-0.7832z"/>
   <path d="m14.137 11.418c-0.46884 0.01718-0.9465 0.25539-1.0684 0.69531 0 0.2887 2.2078 0.4521 2.0859-0.07031-0.08801-0.43993-0.54874-0.64218-1.0176-0.625z"/>
   <path d="m5.322 9.8303c0.12186 0 4.1705 0.54992 2.6134 0.97611-0.59579 0.16498-3.331-0.97611-2.6134-0.97611z"/>
  </g>
  <path d="m8.2661 3.1275 1.3344 1.2621 0.57002 0.53918c0.17723 0.16789-0.11432 0.2143-0.21866 0.22894-0.35665 0.050149-0.57251-0.53264-0.93227-0.5451-0.49214-0.016509-0.95034 0.6781-1.3229 0.65785-0.33734-0.018689-0.30712-0.68402-0.60241-0.65536-0.22707 0.021804-0.063231 0.50616-0.35852 0.58248-0.11868 0.024919-1.0198-0.065412-0.70676-0.29342 0.014017-0.013394 0.028657-0.027411 0.043608-0.041739 0.15107-0.14391 0.35291-0.32488 0.50928-0.47283l1.3344-1.2621c0.04828-0.045477 0.11058-0.071641 0.1735-0.071641 0.063543-6.23e-4 0.1274 0.025542 0.1763 0.071641zm-3.0379 0.81951c0.09033-0.084101 0.18066-0.1682 0.27099-0.2523 0.077871-0.071641 0.15263-0.14017 0.22738-0.21181l1.33-1.2584c0.27411-0.26165 0.63543-0.40804 1.0154-0.41427h0.034258c0.38001 0.00311 0.74445 0.15263 1.0186 0.41427l1.3332 1.2615 0.54198 0.51395c0.28034 0.24607 0.45165 0.59493 0.47034 0.96872 0.01869 0.43296-0.18066 0.85035-0.52952 1.112-0.13394 0.09967-0.28345 0.17755-0.44231 0.22738-0.13082 0.04049-0.26476 0.07164-0.40181 0.08722-0.01869 0.0031-0.03738 0.0031-0.05607 0.0062l-0.043608 0.0031c-0.049838 0.0031-0.09656 0.0031-0.14328 0-0.3364-0.01246-0.66034-0.13082-0.92822-0.33329-0.00623-0.0062-0.012459-0.0093-0.018689-0.01557-0.080986 0.0623-0.1682 0.11836-0.2523 0.17443-0.26165 0.1682-0.55756 0.26476-0.86593 0.28345-0.037378 0.0031-0.074756 0.0031-0.10902 0.0031h-0.015574c-0.031148-0.0031-0.062297-0.0031-0.093445-0.0062-0.15886-0.01557-0.3146-0.05918-0.46411-0.12459-0.034263 0.01246-0.068526 0.0218-0.10279 0.02803-0.11836 0.02492-0.23673 0.03738-0.35509 0.03426-0.22115-0.0031-0.44542-0.02802-0.66346-0.07786-0.15886-0.034247-0.31771-0.084084-0.46411-0.15573-0.14951-0.068526-0.28657-0.16197-0.40493-0.27722-0.27411-0.26788-0.41739-0.63854-0.39558-1.0217 0.024919-0.38001 0.21181-0.72887 0.50772-0.96872z" fill="url(#b)" fill-rule="evenodd" style="isolation:isolate"/>
 </g>
</svg>
