<svg width="48" height="48" version="1.1" viewBox="0 0 48 48" xmlns="http://www.w3.org/2000/svg">
 <linearGradient id="a" x1="52" x2="52" y1="8" y2="28" gradientUnits="userSpaceOnUse">
  <stop stop-color="#d80d9d" offset="0"/>
  <stop stop-color="#a84873" offset="1"/>
 </linearGradient>
 <linearGradient id="b" x1="7.023" x2="56.977" y1="33.593" y2="33.593" gradientUnits="userSpaceOnUse">
  <stop stop-color="#cdfb1b" offset="0"/>
  <stop stop-color="#ff0037" offset="1"/>
 </linearGradient>
 <g transform="matrix(.78159 0 0 .78159 -1.0108 -2.2556)">
  <circle cx="18" cy="28" r="6" fill="#f5f4f4"/>
  <circle cx="46" cy="28" r="6" fill="#f5f4f4"/>
  <path d="m15.268 27.268a2 2 0 0 0 2 3.464c0.618-0.357 0.366-1.366 1.233-1.867 0.865-0.499 1.613 0.223 2.231-0.133a2 2 0 0 0-2-3.464c-0.618 0.357-0.366 1.366-1.233 1.866-0.865 0.5-1.613-0.222-2.231 0.134zm30-2a2 2 0 0 0-2 3.464c0.619 0.356 1.366-0.366 2.233 0.134 0.865 0.5 0.614 1.508 1.231 1.866a2 2 0 0 0 2-3.464c-0.619-0.356-1.366 0.366-2.233-0.134-0.865-0.5-0.614-1.508-1.231-1.866z" fill="#343031"/>
  <path d="m32 6a24 24 0 0 0-0.63 0.031c-0.287 2.31 0.481 4.778 1.82 5.457 1.71 0.869 5.449-0.89 6.63-3.535 0.083-0.186 0.13-0.369 0.18-0.553a24 24 0 0 0-8-1.4zm-1.395 0.07a24 24 0 0 0-9.261 2.457c0.357 0.577 0.883 1.088 1.586 1.516 2.137 1.304 5.85 1.509 7.187-0.982 0.443-0.826 0.572-1.89 0.488-2.99zm10.245 2.645c-0.77 0-2.784 1.655-2.784 2.388s1.618 2.598 2.387 2.598 0.498-2.504 0.498-3.236 0.669-1.75-0.101-1.75zm-16.745 2.255c-1.02-0.1-2.431 1.104-2.771 1.773-0.389 0.764-0.417 2.757 0.59 3.34 1.006 0.583 1.883-0.733 2.273-1.498 0.389-0.764 1.323-2.906 0.317-3.488a0.989 0.989 0 0 0-0.409-0.13zm6.19 0.261c-1.116 0.016-2.386 0.406-3.432 0.926-2.09 1.04-2.496 3.69-1.636 5.654 0.858 1.966 2.057 2.714 4.148 1.674s4.285-4.96 3.426-6.926c-0.43-0.982-1.39-1.34-2.506-1.324zm5.943 0.887c-0.451 0.041-0.925 0.193-1.416 0.47-1.962 1.117-2.65 4.375-1.656 6.366 0.994 1.99 3.692 3.02 5.656 1.904 1.963-1.116 1.654-4.483 0.66-6.474-0.746-1.493-1.89-2.386-3.244-2.268zm5.6 2.996c-1.143 0.074-1.23 1.685-1.182 2.553 0.05 0.869 0.319 3.213 1.461 3.139 1.143-0.074 1.93-2.323 1.881-3.192-0.05-0.868-1.018-2.575-2.16-2.502zm-11.057 4.55c-1.518-0.025-3.178 1.106-3.927 2.315-1 1.614-1.49 2.964 0.251 4.19 1.742 1.228 4.46 1.021 5.46-0.592 0.998-1.613 1.391-4.235-0.35-5.463a2.51 2.51 0 0 0-1.432-0.45zm-5.183 0.401c-0.623 0-1.528 0.502-1.528 1.381 0 0.88 0.407 1.272 1.03 1.272 0.622 0 1.23-0.392 1.23-1.272s-0.11-1.38-0.732-1.38zm9.931 1.91c-0.96 0-1.84 1.952-1.84 3.182s1.276 1.274 2.237 1.274 2.238-0.999 2.238-2.229-1.673-2.226-2.635-2.226z" fill="url(#a)"/>
  <path d="m32 6a24 24 0 0 0-24 24 24 24 0 0 0 2.361 10.326l-0.988 0.988a7.981 7.981 0 0 0 0 11.313 7.98 7.98 0 0 0 8.516 1.816 7.979 7.979 0 0 0 5.83 6.467 7.978 7.978 0 0 0 8.281-2.685 7.978 7.978 0 0 0 8.281 2.685 7.979 7.979 0 0 0 5.83-6.467 7.98 7.98 0 0 0 8.516-1.816 7.981 7.981 0 0 0 0-11.313l-0.992-0.992a24 24 0 0 0 2.365-10.322 24 24 0 0 0-24-24z" fill="none" stroke="url(#b)" stroke-width="2.3"/>
 </g>
</svg>
