<svg width="48pt" height="48pt" style="isolation:isolate" version="1.1" viewBox="0 0 48 48" xmlns="http://www.w3.org/2000/svg">
 <defs>
  <linearGradient id="a" x2="1" y1=".5" y2=".5" gradientTransform="matrix(-37.503 8.9114 4.7082 19.815 39.237 11.893)" gradientUnits="userSpaceOnUse">
   <stop stop-color="#b2fefa" offset="0"/>
   <stop stop-color="#0ed2f7" offset=".98261"/>
  </linearGradient>
 </defs>
 <path d="m43.636 19.091c0-1.204 0.978-2.182 2.182-2.182s2.182 0.978 2.182 2.182v21.818c0 3.011-2.444 5.455-5.455 5.455h-21.818c-1.204 0-2.182-0.978-2.182-2.182s0.978-2.182 2.182-2.182h20.728c1.204 0 2.181-0.978 2.181-2.182v-20.727zm-39.272 8.727c0 1.204-0.978 2.182-2.182 2.182s-2.182-0.978-2.182-2.182v-21.818c0-2.408 1.955-4.364 4.364-4.364h13.047c1.204 0 2.792 0.764 3.545 1.704l2.319 2.899c0.376 0.47 1.17 0.852 1.772 0.852h20.771c1.204 0 2.182 0.978 2.182 2.182s-0.978 2.182-2.182 2.182h-21.774c-1.205 0-2.793-0.764-3.545-1.704l-1.638-2.047c-0.752-0.941-2.34-1.704-3.545-1.704h-8.771c-1.204 0-2.181 0.978-2.181 2.182v19.636zm7.636 14.182c1.204 0 2.182 0.978 2.182 2.182s-0.978 2.182-2.182 2.182h-5.455c-1.734 0-3.403-0.688-4.625-1.92-1.233-1.222-1.92-2.891-1.92-4.626v-4.363c0-1.205 0.978-2.182 2.182-2.182s2.182 0.977 2.182 2.182v4.363c0 0.578 0.229 1.135 0.643 1.538 0.404 0.415 0.96 0.644 1.538 0.644h5.455z" fill="url(#a)" fill-rule="evenodd"/>
 <path d="m7.3864 34.671c0.96974-3.5956 1.9132-6.2253 3.8373-9.1261 0.61921-0.93268 1.2145-1.7766 1.8576-2.5602l-7.72e-4 7.72e-4s0.0054-0.0062 0.01467-0.01699c0.01158-0.01467 0.02316-0.02857 0.03474-0.04246 0.2378-0.29416 1.2268-1.6283 0.51498-2.6722-0.78212-1.1458-3.6303-1.0647-3.6303-1.0647s1.223-0.76822 3.5871-1.172c2.219-0.37909 4.4858 0.43237 4.8958 0.52502 1.0971-0.6169 2.3688-1.233 3.8759-1.8723 5.2131-2.2128 10.16-1.836 12.848-0.7829 3.5223 1.3797 3.9029 3.3555 4.3847 4.2743 0.34667 0.6609 2.5031 1.626 2.0638 2.5348-0.27409 0.56748-1.7148 0.22776-2.8544 0.0471-1.1983-0.18916-1.3403-0.41384-4.4302-0.14978-1.4214 0.12122-2.8799 0.40612-3.9577 0.65241-0.20846 0.98364-0.81764 3.0474-2.4135 4.3476-2.1549 1.755-5.2 2.463-5.2 2.463s1.5751-1.1419 2.395-2.4722c0.55822-0.90566 0.46866-2.0592 0.35516-2.7031l-0.0062 0.0023c-1.6824 0.75278-3.164 1.3604-6.5087 3.6442-2.927 1.9982-4.7005 4.3144-4.7005 4.3144s1.5913-3.3578 4.9606-6.1466c2.7664-2.29 5.1575-3.6651 8.6813-4.685 3.8512-1.1149 6.8415-1.2971 6.8415-1.2971s-0.49182-1.7117-3.7616-2.3927c-2.8428-0.59219-6.9148 0.16291-11.252 2.4382-6.1296 3.215-7.6807 6.5782-9.7916 10.174-2.246 3.8272-3.5825 9.6874-3.5825 9.6874s0.13743-2.9609 0.94272-5.9489z" fill="url(#a)" style="isolation:isolate"/>
</svg>
