<svg width="48" height="48" version="1.1" xmlns="http://www.w3.org/2000/svg" xmlns:xlink="http://www.w3.org/1999/xlink">
 <defs>
  <linearGradient id="a" x2="0" y2="1">
   <stop stop-color="#00d4aa" offset="0"/>
   <stop stop-color="#2a7fff" offset="1"/>
  </linearGradient>
  <style id="i" type="text/css">.ColorScheme-Text { color:#d5c289; } .ColorScheme-Highlight { color:#5294e2; }</style>
  <linearGradient id="h" x1="269.4" x2="254.43" y1="343.16" y2="358.13" gradientTransform="scale(1.069 .93541)" gradientUnits="userSpaceOnUse" xlink:href="#a"/>
  <linearGradient id="g" x1="2.7857" x2="4.3901" y1="4.7912" y2="4.7912" gradientTransform="matrix(.94532 0 0 .93972 1.0333 .9918)" gradientUnits="userSpaceOnUse">
   <stop stop-opacity=".23529" offset="0"/>
   <stop stop-opacity="0" offset="1"/>
  </linearGradient>
  <linearGradient id="e" x1="11.209" x2="13.615" y1="4.7912" y2="4.7912" gradientTransform="matrix(.9003 0 0 .89497 .40035 1.2062)" gradientUnits="userSpaceOnUse" xlink:href="#a"/>
  <linearGradient id="d" x1="11.61" x2="13.214" y1="4.7912" y2="4.7912" gradientTransform="matrix(.94531 0 0 .93972 -.15834 .9918)" gradientUnits="userSpaceOnUse">
   <stop stop-opacity=".23529" offset="0"/>
   <stop stop-opacity="0" offset="1"/>
  </linearGradient>
  <linearGradient id="c" x1="3.1868" x2="12.813" y1="8" y2="8" gradientTransform="matrix(.8125 0 0 .85714 1.5 1.1429)" gradientUnits="userSpaceOnUse" xlink:href="#a"/>
  <linearGradient id="b" x1="2.3846" x2="4.7912" y1="4.7912" y2="4.7912" gradientTransform="matrix(.9003 0 0 .89497 1.1948 1.2062)" gradientUnits="userSpaceOnUse" xlink:href="#a"/>
  <linearGradient id="f" x1=".5" x2="12.926" y1="7.9127" y2="7.9127" gradientTransform="matrix(.47142 0 0 .4651 4.8143 6.0698)" gradientUnits="userSpaceOnUse">
   <stop stop-color="#0cf" offset="0"/>
   <stop stop-color="#ff5cff" offset="1"/>
  </linearGradient>
 </defs>
 <g transform="matrix(3.3301 0 0 3.3301 -2.6409 -.97585)">
  <g transform="matrix(.75 0 0 .78571 -202 -249.21)">
   <path class="ColorScheme-Text" d="m275.99 321c-1.2582 0.0145-2.1789-0.0306-2.9316 0.38477-0.37637 0.20766-0.67323 0.55938-0.83789 0.99804-0.16467 0.43867-0.22461 0.95958-0.22461 1.6172v8c0 0.65761 0.0599 1.1785 0.22461 1.6172 0.16467 0.43866 0.46152 0.79039 0.83789 0.99804 0.75275 0.41532 1.6734 0.3702 2.9316 0.38477h8.0119c1.2582-0.0145 2.1789 0.0306 2.9316-0.38477 0.37637-0.20766 0.67322-0.55938 0.83789-0.99804 0.16449-0.43867 0.22443-0.95958 0.22443-1.6172v-8c0-0.65761-0.0599-1.1785-0.22461-1.6172-0.16466-0.43866-0.46152-0.79038-0.83789-0.99804-0.75275-0.41534-1.6734-0.37025-2.9316-0.38477h-8.0079zm6e-3 1h8c1.2585 0.0147 2.0872 0.0598 2.4531 0.26172 0.18341 0.1012 0.28916 0.21274 0.38672 0.47266 0.09743 0.25991 0.16002 0.67323 0.16002 1.2656v8c0 0.59239-0.0626 1.0057-0.16016 1.2656-0.0976 0.25991-0.20331 0.37147-0.38672 0.47266-0.36595 0.20191-1.1946 0.24701-2.4531 0.26172h-8c-1.2585-0.0147-2.0891-0.0598-2.4551-0.26172-0.18341-0.10119-0.2872-0.21275-0.38476-0.47266-0.09757-0.2599-0.16016-0.67323-0.16016-1.2656v-8c0-0.59239 0.0626-1.0057 0.16016-1.2656 0.0976-0.25991 0.20135-0.37147 0.38476-0.47266 0.36596-0.20191 1.1966-0.24701 2.4551-0.26172z" fill="url(#h)"/>
  </g>
  <g transform="matrix(-.92308 0 0 -.92857 15.385 11.302)">
   <path d="m4.425 4.4173c-0.59996 0-1.0833 0.48052-1.0833 1.0769 0 0.59641 0.48338 1.0769 1.0833 1.0769 0.59996 0 1.0833-0.48052 1.0833-1.0769 0-0.59641-0.48338-1.0769-1.0833-1.0769zm0 0.35897c0.40092 0 0.72222 0.3194 0.72222 0.71795 0 0.39855-0.3213 0.71795-0.72222 0.71795-0.40092 0-0.72222-0.3194-0.72222-0.71795 0-0.39855 0.3213-0.71795 0.72222-0.71795z" fill="url(#b)" stroke-width=".72576"/>
   <path d="m4.425 4.7404c0.41798 0 0.75833 0.33834 0.75833 0.75385 0 0.41551-0.34036 0.75385-0.75833 0.75385-0.41798 0-0.75834-0.33834-0.75834-0.75385 0-0.41551 0.34036-0.75385 0.75834-0.75385z" fill="url(#g)" fill-opacity=".23529" stroke-width=".76204"/>
   <path d="m11.575 4.4173c-0.59996 0-1.0833 0.48052-1.0833 1.0769 0 0.59641 0.48337 1.0769 1.0833 1.0769 0.59996 0 1.0833-0.48052 1.0833-1.0769 0-0.59641-0.48338-1.0769-1.0833-1.0769zm0 0.35897c0.40092 0 0.72223 0.3194 0.72223 0.71795 0 0.39855-0.32131 0.71795-0.72223 0.71795-0.40091 0-0.72222-0.3194-0.72222-0.71795 0-0.39855 0.3213-0.71795 0.72222-0.71795z" fill="url(#e)" stroke-width=".72576"/>
   <path d="m11.575 4.7404c0.41798 0 0.75834 0.33834 0.75834 0.75385 0 0.41551-0.34036 0.75385-0.75834 0.75385-0.41797 0-0.75833-0.33834-0.75833-0.75385 0-0.41551 0.34036-0.75385 0.75833-0.75385z" fill="url(#d)" fill-opacity=".23529" stroke-width=".76204"/>
   <path d="m4.4152 4.9058c-0.17963 0-0.32589 0.1543-0.32589 0.3438v1.719c0 2.2848 1.7449 4.1256 3.9107 4.1256 2.1658 0 3.9107-1.8408 3.9107-4.1256v-1.719c0-0.1895-0.14627-0.3438-0.3259-0.3438-0.17962 0-0.32589 0.1543-0.32589 0.3438v1.719c0 1.9058-1.4524 3.438-3.2589 3.438-1.8065 0-3.2589-1.5322-3.2589-3.438v-1.719c0-0.1895-0.14627-0.3438-0.32589-0.3438z" fill="url(#c)" stroke-width=".67473"/>
  </g>
  <path class="ColorScheme-Text" d="m6.5145 7.0581c-0.20221 0-0.36613 0.15229-0.36613 0.34012 0 0.18784 0.16392 0.34012 0.36613 0.34012 0.2022 0 0.36613-0.15229 0.36613-0.34012 0-0.18784-0.16392-0.34012-0.36613-0.34012zm2.5629 0c-0.41657-0.21892-0.95369 0.21895-0.73223 0.68024l1.0983 1.0204-1.0983 1.0204c-0.25693 0.42933 0.23127 0.91996 0.73223 0.68024l1.8306-1.7006zm-3.4782 2.0407c-0.30331 0-0.54919 0.22842-0.54919 0.51018 0 0.28177 0.24588 0.51018 0.54919 0.51018 0.30331 0 0.54919-0.22842 0.54919-0.51018 0-0.28177-0.24588-0.51018-0.54919-0.51018zm1.6476 2.0407c-0.40441 0-0.73225 0.30455-0.73225 0.68024s0.32784 0.68024 0.73225 0.68024c0.40441 0 0.73225-0.30456 0.73225-0.68024 0-0.37569-0.32784-0.68024-0.73225-0.68024z" color="#d1d5e9" fill="url(#f)" stroke-width=".35288"/>
 </g>
</svg>
